<?xml version="1.0" encoding="UTF-8" standalone="no"?>
<!-- Generator: Gravit.io -->
<svg xmlns="http://www.w3.org/2000/svg" xmlns:xlink="http://www.w3.org/1999/xlink" style="isolation:isolate" viewBox="0 0 256 256" width="256pt" height="256pt"><defs><clipPath id="_clipPath_Tb5zyrOFJBQBUYkoxuPStwiGnxdpjcIS"><rect width="256" height="256"/></clipPath></defs><g clip-path="url(#_clipPath_Tb5zyrOFJBQBUYkoxuPStwiGnxdpjcIS)"><g><g><g><g><circle vector-effect="non-scaling-stroke" cx="98.74285714285672" cy="80.45714285714223" r="80.45714285714232" fill="rgb(208,210,211)"/><rect x="91.429" y="95.086" width="109.714" height="65.829" transform="matrix(1,0,0,1,0,0)" fill="rgb(208,210,211)"/><circle vector-effect="non-scaling-stroke" cx="193.82857142857168" cy="117.02857142856953" r="43.8857142857139" fill="rgb(208,210,211)"/></g><circle vector-effect="non-scaling-stroke" cx="127.99999999999787" cy="245.55102040816325" r="10.448979591836746" fill="rgb(105,156,139)"/><g><g><circle vector-effect="non-scaling-stroke" cx="216.8163265306121" cy="219.7650416012849" r="10.448979591836746" fill="rgb(105,156,139)"/><line x1="154.122" y1="182.857" x2="154.122" y2="245.551" vector-effect="non-scaling-stroke" stroke-width="10" stroke="rgb(208,210,211)" stroke-linejoin="miter" stroke-linecap="square" stroke-miterlimit="3"/><line x1="128" y1="182.857" x2="128" y2="224.653" vector-effect="non-scaling-stroke" stroke-width="10" stroke="rgb(208,210,211)" stroke-linejoin="miter" stroke-linecap="square" stroke-miterlimit="3"/><path d=" M 154.19 245.551 C 153.851 240.628 154.776 235.555 157.13 230.821 C 164.19 216.621 181.452 210.824 195.653 217.884" fill="none" vector-effect="non-scaling-stroke" stroke-width="10" stroke="rgb(208,210,211)" stroke-linejoin="miter" stroke-linecap="square" stroke-miterlimit="3"/></g><g><line x1="101.878" y1="182.857" x2="101.878" y2="245.551" vector-effect="non-scaling-stroke" stroke-width="10" stroke="rgb(208,210,211)" stroke-linejoin="miter" stroke-linecap="square" stroke-miterlimit="3"/><path d=" M 101.81 245.551 C 102.149 240.628 101.224 235.555 98.87 230.821 C 91.81 216.621 74.548 210.824 60.347 217.884" fill="none" vector-effect="non-scaling-stroke" stroke-width="10" stroke="rgb(208,210,211)" stroke-linejoin="miter" stroke-linecap="square" stroke-miterlimit="3"/></g></g></g><circle vector-effect="non-scaling-stroke" cx="39.18367346938763" cy="219.7650416012849" r="10.448979591836746" fill="rgb(105,156,139)"/></g></g></g></svg>