<?xml version="1.0" encoding="UTF-8" standalone="no"?>
<!-- Generator: Gravit.io -->
<svg xmlns="http://www.w3.org/2000/svg" xmlns:xlink="http://www.w3.org/1999/xlink" style="isolation:isolate" viewBox="0 0 256 256" width="256pt" height="256pt"><defs><clipPath id="_clipPath_XSZuEx0rHxrpwzTr3XfQaYrT15Xu6mEX"><rect width="256" height="256"/></clipPath></defs><g clip-path="url(#_clipPath_XSZuEx0rHxrpwzTr3XfQaYrT15Xu6mEX)"><g><g><g><circle vector-effect="non-scaling-stroke" cx="94.66046511627866" cy="94.18372093023149" r="91.68372093023177" fill="rgb(208,210,211)"/><rect x="86.326" y="110.853" width="125.023" height="75.014" transform="matrix(1,0,0,1,0,0)" fill="rgb(208,210,211)"/><circle vector-effect="non-scaling-stroke" cx="203.01395348837224" cy="135.85813953488082" r="50.009302325580876" fill="rgb(208,210,211)"/></g></g><path d=" M 208.883 245.514 L 198.916 237.6 L 199.152 238.129 L 198.699 237.769 L 198.581 237.505 L 198.807 237.685 L 199.043 238.213 L 198.59 237.853 L 203.776 249.475 L 203.426 249.014 L 203.662 249.543 L 203.837 249.773 L 203.719 249.509 L 203.369 249.048 L 203.605 249.576 L 195.919 239.433 L 196.016 240.003 L 195.667 239.542 L 195.618 239.257 L 195.793 239.487 L 195.89 240.058 L 195.541 239.597 L 197.673 252.143 L 197.45 251.609 L 197.547 252.18 L 197.658 252.447 L 197.61 252.162 L 197.386 251.628 L 197.483 252.198 L 192.561 240.462 L 192.513 241.039 L 192.289 240.505 L 192.313 240.217 L 192.425 240.484 L 192.377 241.061 L 192.154 240.527 L 191.099 253.209 L 191.015 252.637 L 190.967 253.214 L 191.009 253.5 L 191.033 253.212 L 190.949 252.639 L 190.901 253.216 L 189.053 240.624 L 188.863 241.171 L 188.779 240.598 L 188.874 240.325 L 188.916 240.611 L 188.726 241.158 L 188.642 240.585 L 184.466 252.607 L 184.527 252.032 L 184.337 252.579 L 184.307 252.866 L 184.402 252.593 L 184.463 252.017 L 184.273 252.564 L 185.614 239.909 L 185.294 240.391 L 185.355 239.815 L 185.515 239.574 L 185.484 239.862 L 185.164 240.344 L 185.225 239.769 L 178.192 250.375 L 178.394 249.832 L 178.074 250.315 L 177.973 250.586 L 178.133 250.345 L 178.335 249.802 L 178.015 250.285 L 182.461 238.36 L 182.031 238.748 L 182.234 238.206 L 182.448 238.012 L 182.347 238.283 L 181.917 238.671 L 182.12 238.128 L 172.669 246.652 L 173 246.177 L 172.57 246.564 L 172.405 246.802 L 172.62 246.608 L 172.95 246.133 L 172.521 246.521 L 179.792 236.077 L 179.28 236.345 L 179.611 235.87 L 179.867 235.736 L 179.701 235.973 L 179.189 236.242 L 179.52 235.767 L 168.246 241.672 L 168.685 241.295 L 168.172 241.563 L 167.953 241.752 L 168.209 241.618 L 168.648 241.24 L 168.135 241.509 L 177.776 233.201 L 177.212 233.334 L 177.651 232.956 L 177.932 232.889 L 177.713 233.078 L 177.15 233.211 L 177.588 232.833 L 165.201 235.75 L 165.719 235.493 L 165.156 235.625 L 164.896 235.754 L 165.178 235.687 L 165.697 235.431 L 165.133 235.563 L 176.537 229.914 L 175.959 229.902 L 176.477 229.646 L 176.767 229.651 L 176.507 229.78 L 175.929 229.768 L 176.447 229.511 L 163.723 229.255 L 164.29 229.135 L 163.711 229.124 L 163.428 229.184 L 163.717 229.19 L 164.284 229.07 L 163.705 229.058 L 176.155 226.423 L 175.598 226.267 L 176.164 226.147 L 176.443 226.225 L 176.16 226.285 L 175.602 226.13 L 176.168 226.01 L 163.908 222.598 L 164.486 222.623 L 163.928 222.467 L 163.639 222.455 L 163.918 222.533 L 164.496 222.557 L 163.939 222.402 L 176.654 222.946 L 176.152 222.657 L 176.73 222.681 L 176.981 222.826 L 176.692 222.814 L 176.19 222.525 L 176.769 222.549 L 165.742 216.195 L 166.296 216.363 L 165.795 216.074 L 165.518 215.99 L 165.768 216.135 L 166.322 216.302 L 165.821 216.013 L 178.001 219.702 L 177.587 219.297 L 178.141 219.465 L 178.348 219.667 L 178.071 219.584 L 177.657 219.179 L 178.211 219.347 L 169.111 210.45 L 169.606 210.75 L 169.192 210.346 L 168.944 210.196 L 169.151 210.398 L 169.646 210.698 L 169.232 210.293 L 180.113 216.895 L 179.812 216.4 L 180.307 216.701 L 180.457 216.948 L 180.21 216.798 L 179.91 216.303 L 180.404 216.603 L 173.803 205.723 L 174.207 206.137 L 173.907 205.642 L 173.705 205.435 L 173.855 205.683 L 174.26 206.097 L 173.959 205.602 L 182.856 214.702 L 182.688 214.148 L 183.093 214.562 L 183.177 214.839 L 182.974 214.632 L 182.807 214.078 L 183.211 214.492 L 179.523 202.312 L 179.812 202.813 L 179.644 202.259 L 179.499 202.008 L 179.583 202.285 L 179.872 202.787 L 179.705 202.233 L 186.059 213.26 L 186.034 212.681 L 186.323 213.183 L 186.335 213.472 L 186.191 213.221 L 186.166 212.643 L 186.455 213.144 L 185.911 200.43 L 186.067 200.987 L 186.042 200.409 L 185.964 200.13 L 185.977 200.419 L 186.132 200.977 L 186.107 200.399 L 189.519 212.659 L 189.639 212.093 L 189.794 212.65 L 189.734 212.934 L 189.657 212.655 L 189.777 212.088 L 189.932 212.646 L 192.567 200.196 L 192.579 200.774 L 192.699 200.208 L 192.693 199.919 L 192.633 200.202 L 192.645 200.78 L 192.765 200.214 L 193.021 212.938 L 193.277 212.419 L 193.289 212.998 L 193.161 213.257 L 193.155 212.968 L 193.412 212.449 L 193.423 213.028 L 199.072 201.624 L 198.94 202.188 L 199.197 201.669 L 199.263 201.387 L 199.135 201.647 L 199.002 202.21 L 199.259 201.691 L 196.342 214.079 L 196.72 213.64 L 196.588 214.204 L 196.399 214.423 L 196.465 214.141 L 196.843 213.703 L 196.71 214.266 L 205.018 204.626 L 204.749 205.138 L 205.127 204.7 L 205.261 204.443 L 205.073 204.663 L 204.804 205.175 L 205.182 204.737 L 199.276 216.01 L 199.751 215.679 L 199.483 216.192 L 199.245 216.358 L 199.379 216.101 L 199.855 215.77 L 199.586 216.283 L 210.03 209.011 L 209.642 209.441 L 210.117 209.11 L 210.311 208.896 L 210.074 209.061 L 209.686 209.491 L 210.161 209.16 L 201.638 218.61 L 202.18 218.408 L 201.792 218.838 L 201.521 218.939 L 201.715 218.724 L 202.257 218.522 L 201.87 218.952 L 213.794 214.506 L 213.312 214.826 L 213.854 214.624 L 214.095 214.464 L 213.824 214.565 L 213.342 214.885 L 213.884 214.682 L 203.278 221.716 L 203.854 221.655 L 203.371 221.975 L 203.084 222.006 L 203.325 221.846 L 203.9 221.785 L 203.418 222.105 L 216.074 220.764 L 215.527 220.954 L 216.102 220.893 L 216.376 220.798 L 216.088 220.828 L 215.541 221.018 L 216.117 220.957 L 204.095 225.132 L 204.667 225.216 L 204.121 225.406 L 203.834 225.364 L 204.108 225.269 L 204.68 225.353 L 204.134 225.543 L 216.725 227.392 L 216.148 227.44 L 216.721 227.524 L 217.009 227.5 L 216.723 227.458 L 216.146 227.506 L 216.719 227.59 L 204.036 228.644 L 204.57 228.868 L 203.993 228.916 L 203.726 228.804 L 204.015 228.78 L 204.548 229.004 L 203.972 229.052 L 215.708 233.974 L 215.137 233.877 L 215.671 234.101 L 215.956 234.149 L 215.689 234.037 L 215.119 233.94 L 215.652 234.164 L 203.106 232.031 L 203.567 232.381 L 202.997 232.284 L 202.766 232.109 L 203.051 232.158 L 203.513 232.507 L 202.942 232.41 L 213.085 240.096 L 212.557 239.86 L 213.018 240.21 L 213.282 240.328 L 213.052 240.153 L 212.523 239.917 L 212.985 240.267 L 201.363 235.081 L 201.723 235.534 L 201.194 235.298 L 201.014 235.071 L 201.278 235.189 L 201.638 235.643 L 201.11 235.407 L 209.023 245.374 L 208.57 245.014 L 208.93 245.467 L 209.156 245.647 L 208.976 245.42 L 208.523 245.06 L 208.883 245.514 Z " fill="rgb(208,210,211)"/><path d=" M 147.909 219.23 L 143.479 215.713 L 143.584 215.948 L 143.383 215.788 L 143.33 215.67 L 143.431 215.75 L 143.536 215.985 L 143.334 215.825 L 145.639 220.99 L 145.484 220.785 L 145.589 221.02 L 145.667 221.123 L 145.614 221.005 L 145.459 220.8 L 145.564 221.035 L 142.148 216.527 L 142.191 216.781 L 142.035 216.576 L 142.014 216.449 L 142.091 216.551 L 142.135 216.805 L 141.979 216.6 L 142.927 222.176 L 142.828 221.939 L 142.871 222.192 L 142.921 222.311 L 142.899 222.184 L 142.799 221.947 L 142.843 222.201 L 140.655 216.985 L 140.634 217.241 L 140.534 217.004 L 140.545 216.875 L 140.595 216.994 L 140.573 217.25 L 140.474 217.013 L 140.005 222.65 L 139.968 222.395 L 139.947 222.652 L 139.965 222.779 L 139.976 222.651 L 139.939 222.396 L 139.917 222.653 L 139.096 217.057 L 139.011 217.3 L 138.974 217.045 L 139.016 216.924 L 139.035 217.051 L 138.95 217.294 L 138.913 217.039 L 137.057 222.382 L 137.084 222.127 L 137 222.37 L 136.987 222.497 L 137.029 222.376 L 137.056 222.12 L 136.971 222.363 L 137.567 216.738 L 137.425 216.953 L 137.452 216.697 L 137.523 216.59 L 137.51 216.718 L 137.368 216.932 L 137.395 216.676 L 134.269 221.39 L 134.358 221.149 L 134.216 221.363 L 134.171 221.484 L 134.242 221.377 L 134.332 221.136 L 134.19 221.35 L 136.166 216.05 L 135.975 216.223 L 136.065 215.982 L 136.161 215.895 L 136.116 216.016 L 135.925 216.188 L 136.014 215.947 L 131.814 219.735 L 131.961 219.524 L 131.77 219.697 L 131.697 219.802 L 131.792 219.716 L 131.939 219.505 L 131.748 219.677 L 134.98 215.035 L 134.752 215.155 L 134.899 214.944 L 135.013 214.884 L 134.94 214.989 L 134.712 215.109 L 134.859 214.898 L 129.848 217.522 L 130.043 217.354 L 129.815 217.474 L 129.718 217.558 L 129.832 217.498 L 130.027 217.33 L 129.799 217.45 L 134.084 213.757 L 133.833 213.816 L 134.028 213.648 L 134.153 213.619 L 134.056 213.703 L 133.806 213.762 L 134 213.594 L 128.495 214.89 L 128.725 214.776 L 128.475 214.835 L 128.36 214.892 L 128.485 214.862 L 128.715 214.748 L 128.465 214.807 L 133.533 212.296 L 133.276 212.291 L 133.507 212.177 L 133.635 212.18 L 133.52 212.237 L 133.263 212.232 L 133.493 212.117 L 127.838 212.004 L 128.09 211.95 L 127.833 211.945 L 127.707 211.972 L 127.836 211.974 L 128.087 211.921 L 127.83 211.916 L 133.364 210.745 L 133.116 210.676 L 133.367 210.622 L 133.491 210.657 L 133.366 210.684 L 133.118 210.615 L 133.369 210.561 L 127.92 209.045 L 128.177 209.056 L 127.929 208.987 L 127.801 208.981 L 127.925 209.016 L 128.182 209.027 L 127.934 208.958 L 133.585 209.199 L 133.362 209.071 L 133.619 209.082 L 133.731 209.146 L 133.602 209.141 L 133.379 209.012 L 133.636 209.023 L 128.735 206.199 L 128.982 206.274 L 128.759 206.145 L 128.636 206.108 L 128.747 206.172 L 128.993 206.247 L 128.77 206.118 L 134.184 207.758 L 134 207.578 L 134.246 207.652 L 134.338 207.742 L 134.215 207.705 L 134.031 207.525 L 134.277 207.6 L 130.233 203.646 L 130.453 203.779 L 130.269 203.599 L 130.159 203.533 L 130.251 203.623 L 130.471 203.756 L 130.287 203.576 L 135.122 206.51 L 134.989 206.29 L 135.209 206.424 L 135.276 206.534 L 135.166 206.467 L 135.032 206.247 L 135.252 206.381 L 132.318 201.545 L 132.498 201.729 L 132.364 201.509 L 132.274 201.417 L 132.341 201.527 L 132.521 201.711 L 132.388 201.491 L 136.342 205.535 L 136.267 205.289 L 136.447 205.473 L 136.484 205.596 L 136.394 205.504 L 136.32 205.258 L 136.5 205.442 L 134.86 200.029 L 134.989 200.252 L 134.914 200.005 L 134.85 199.894 L 134.887 200.017 L 135.016 200.24 L 134.941 199.994 L 137.765 204.894 L 137.754 204.637 L 137.882 204.86 L 137.888 204.989 L 137.824 204.877 L 137.813 204.62 L 137.941 204.843 L 137.7 199.192 L 137.769 199.44 L 137.758 199.183 L 137.723 199.059 L 137.729 199.188 L 137.798 199.435 L 137.787 199.178 L 139.303 204.628 L 139.356 204.376 L 139.425 204.624 L 139.399 204.75 L 139.364 204.626 L 139.418 204.374 L 139.486 204.622 L 140.658 199.088 L 140.663 199.345 L 140.716 199.094 L 140.714 198.965 L 140.687 199.091 L 140.692 199.348 L 140.746 199.096 L 140.859 204.752 L 140.973 204.521 L 140.979 204.778 L 140.922 204.893 L 140.919 204.765 L 141.033 204.534 L 141.038 204.792 L 143.549 199.723 L 143.49 199.974 L 143.604 199.743 L 143.634 199.618 L 143.577 199.733 L 143.518 199.983 L 143.632 199.753 L 142.336 205.259 L 142.504 205.064 L 142.445 205.314 L 142.361 205.412 L 142.39 205.286 L 142.558 205.091 L 142.499 205.342 L 146.191 201.057 L 146.072 201.285 L 146.24 201.09 L 146.3 200.976 L 146.216 201.074 L 146.096 201.302 L 146.264 201.107 L 143.64 206.117 L 143.851 205.97 L 143.731 206.198 L 143.626 206.271 L 143.685 206.157 L 143.897 206.01 L 143.777 206.238 L 148.419 203.006 L 148.247 203.197 L 148.458 203.05 L 148.544 202.955 L 148.438 203.028 L 148.266 203.219 L 148.477 203.072 L 144.689 207.273 L 144.93 207.183 L 144.758 207.374 L 144.637 207.419 L 144.723 207.323 L 144.964 207.233 L 144.792 207.424 L 150.092 205.448 L 149.878 205.591 L 150.119 205.501 L 150.226 205.43 L 150.105 205.474 L 149.891 205.617 L 150.132 205.527 L 145.418 208.653 L 145.674 208.626 L 145.46 208.768 L 145.332 208.782 L 145.439 208.71 L 145.695 208.683 L 145.48 208.826 L 151.105 208.23 L 150.862 208.314 L 151.118 208.287 L 151.239 208.245 L 151.111 208.258 L 150.868 208.343 L 151.124 208.316 L 145.781 210.171 L 146.036 210.209 L 145.793 210.293 L 145.665 210.274 L 145.787 210.232 L 146.041 210.269 L 145.798 210.354 L 151.395 211.175 L 151.138 211.197 L 151.393 211.234 L 151.521 211.223 L 151.394 211.205 L 151.137 211.226 L 151.392 211.263 L 145.755 211.732 L 145.992 211.832 L 145.736 211.853 L 145.617 211.803 L 145.745 211.792 L 145.983 211.892 L 145.726 211.913 L 150.942 214.101 L 150.689 214.058 L 150.926 214.157 L 151.053 214.179 L 150.934 214.129 L 150.681 214.086 L 150.918 214.185 L 145.342 213.237 L 145.547 213.393 L 145.293 213.35 L 145.191 213.272 L 145.317 213.294 L 145.522 213.449 L 145.269 213.406 L 149.777 216.822 L 149.542 216.717 L 149.747 216.872 L 149.865 216.925 L 149.762 216.847 L 149.527 216.742 L 149.732 216.898 L 144.567 214.593 L 144.727 214.794 L 144.492 214.689 L 144.412 214.589 L 144.529 214.641 L 144.689 214.842 L 144.454 214.738 L 147.971 219.167 L 147.77 219.007 L 147.93 219.209 L 148.031 219.289 L 147.951 219.188 L 147.749 219.028 L 147.909 219.23 Z " fill="rgb(208,210,211)"/><path d=" M 80.615 229.362 L 73.97 224.086 L 74.128 224.439 L 73.825 224.199 L 73.747 224.023 L 73.898 224.143 L 74.055 224.495 L 73.753 224.255 L 77.21 232.003 L 76.977 231.695 L 77.134 232.048 L 77.251 232.202 L 77.172 232.025 L 76.939 231.718 L 77.097 232.07 L 71.973 225.308 L 72.037 225.688 L 71.804 225.381 L 71.772 225.191 L 71.888 225.344 L 71.953 225.725 L 71.72 225.417 L 73.142 233.781 L 72.993 233.426 L 73.057 233.806 L 73.132 233.984 L 73.1 233.794 L 72.95 233.438 L 73.015 233.818 L 69.734 225.994 L 69.702 226.379 L 69.553 226.023 L 69.569 225.831 L 69.643 226.009 L 69.611 226.393 L 69.462 226.037 L 68.759 234.492 L 68.703 234.111 L 68.671 234.495 L 68.699 234.686 L 68.715 234.494 L 68.659 234.112 L 68.627 234.497 L 67.395 226.102 L 67.268 226.467 L 67.212 226.085 L 67.275 225.903 L 67.303 226.094 L 67.177 226.458 L 67.121 226.076 L 64.337 234.091 L 64.378 233.707 L 64.251 234.072 L 64.231 234.264 L 64.294 234.081 L 64.335 233.698 L 64.208 234.062 L 65.102 225.625 L 64.889 225.947 L 64.93 225.563 L 65.036 225.402 L 65.016 225.594 L 64.803 225.916 L 64.843 225.532 L 60.154 232.603 L 60.289 232.241 L 60.076 232.563 L 60.008 232.743 L 60.115 232.583 L 60.25 232.221 L 60.036 232.543 L 63 224.593 L 62.714 224.851 L 62.849 224.49 L 62.992 224.361 L 62.925 224.541 L 62.638 224.8 L 62.773 224.438 L 56.473 230.121 L 56.693 229.804 L 56.406 230.062 L 56.296 230.221 L 56.439 230.091 L 56.66 229.775 L 56.373 230.033 L 61.221 223.07 L 60.88 223.25 L 61.1 222.933 L 61.271 222.843 L 61.161 223.002 L 60.819 223.181 L 61.039 222.864 L 53.524 226.801 L 53.816 226.549 L 53.474 226.728 L 53.328 226.854 L 53.499 226.765 L 53.791 226.513 L 53.45 226.692 L 59.877 221.153 L 59.501 221.242 L 59.793 220.99 L 59.981 220.946 L 59.835 221.072 L 59.46 221.16 L 59.752 220.908 L 51.493 222.852 L 51.839 222.681 L 51.464 222.77 L 51.291 222.855 L 51.478 222.811 L 51.824 222.64 L 51.449 222.728 L 59.051 218.962 L 58.665 218.954 L 59.011 218.783 L 59.204 218.787 L 59.031 218.873 L 58.645 218.865 L 58.991 218.694 L 50.509 218.523 L 50.886 218.443 L 50.5 218.435 L 50.312 218.475 L 50.505 218.479 L 50.882 218.399 L 50.496 218.391 L 58.797 216.634 L 58.425 216.531 L 58.802 216.451 L 58.988 216.503 L 58.799 216.543 L 58.428 216.439 L 58.805 216.359 L 50.632 214.085 L 51.017 214.101 L 50.645 213.998 L 50.453 213.989 L 50.638 214.041 L 51.024 214.058 L 50.652 213.954 L 59.129 214.316 L 58.794 214.124 L 59.18 214.14 L 59.347 214.237 L 59.154 214.228 L 58.82 214.036 L 59.206 214.052 L 51.854 209.816 L 52.224 209.928 L 51.889 209.735 L 51.705 209.679 L 51.872 209.776 L 52.241 209.888 L 51.907 209.695 L 60.027 212.154 L 59.751 211.884 L 60.12 211.996 L 60.258 212.131 L 60.074 212.075 L 59.798 211.805 L 60.167 211.917 L 54.1 205.986 L 54.43 206.186 L 54.154 205.916 L 53.989 205.816 L 54.127 205.951 L 54.457 206.151 L 54.181 205.882 L 61.435 210.283 L 61.235 209.953 L 61.564 210.153 L 61.665 210.318 L 61.5 210.218 L 61.299 209.888 L 61.629 210.088 L 57.228 202.835 L 57.498 203.111 L 57.298 202.781 L 57.163 202.643 L 57.263 202.808 L 57.533 203.084 L 57.333 202.754 L 63.264 208.821 L 63.152 208.451 L 63.422 208.727 L 63.477 208.912 L 63.343 208.774 L 63.231 208.405 L 63.5 208.68 L 61.041 200.56 L 61.234 200.895 L 61.122 200.525 L 61.026 200.358 L 61.082 200.543 L 61.275 200.877 L 61.163 200.508 L 65.399 207.859 L 65.382 207.474 L 65.575 207.808 L 65.583 208.001 L 65.487 207.833 L 65.47 207.448 L 65.663 207.782 L 65.301 199.306 L 65.404 199.678 L 65.388 199.292 L 65.336 199.106 L 65.344 199.299 L 65.448 199.671 L 65.431 199.285 L 67.706 207.459 L 67.786 207.081 L 67.889 207.453 L 67.849 207.642 L 67.798 207.456 L 67.877 207.078 L 67.981 207.45 L 69.738 199.15 L 69.746 199.536 L 69.826 199.158 L 69.822 198.965 L 69.782 199.154 L 69.79 199.54 L 69.869 199.162 L 70.04 207.645 L 70.211 207.299 L 70.219 207.685 L 70.133 207.858 L 70.13 207.665 L 70.301 207.319 L 70.309 207.705 L 74.075 200.102 L 73.986 200.478 L 74.158 200.132 L 74.202 199.944 L 74.116 200.117 L 74.028 200.493 L 74.199 200.147 L 72.255 208.405 L 72.507 208.113 L 72.418 208.489 L 72.292 208.635 L 72.336 208.447 L 72.588 208.155 L 72.5 208.53 L 78.038 202.103 L 77.859 202.445 L 78.111 202.153 L 78.201 201.982 L 78.075 202.128 L 77.896 202.47 L 78.148 202.177 L 74.211 209.693 L 74.527 209.472 L 74.348 209.814 L 74.19 209.924 L 74.279 209.754 L 74.596 209.533 L 74.417 209.875 L 81.38 205.027 L 81.121 205.314 L 81.438 205.093 L 81.567 204.95 L 81.409 205.06 L 81.15 205.347 L 81.467 205.126 L 75.785 211.426 L 76.146 211.292 L 75.888 211.578 L 75.707 211.645 L 75.836 211.502 L 76.198 211.367 L 75.939 211.654 L 83.889 208.69 L 83.567 208.903 L 83.929 208.768 L 84.09 208.662 L 83.909 208.729 L 83.587 208.942 L 83.949 208.808 L 76.878 213.497 L 77.262 213.456 L 76.941 213.669 L 76.749 213.69 L 76.909 213.583 L 77.293 213.542 L 76.972 213.756 L 85.409 212.862 L 85.044 212.988 L 85.428 212.948 L 85.61 212.884 L 85.418 212.905 L 85.054 213.031 L 85.437 212.991 L 77.423 215.774 L 77.805 215.83 L 77.44 215.957 L 77.249 215.929 L 77.431 215.866 L 77.813 215.922 L 77.449 216.048 L 85.843 217.281 L 85.458 217.313 L 85.84 217.369 L 86.033 217.353 L 85.842 217.325 L 85.457 217.357 L 85.839 217.413 L 77.384 218.116 L 77.74 218.265 L 77.355 218.297 L 77.177 218.222 L 77.369 218.206 L 77.725 218.355 L 77.341 218.387 L 85.165 221.669 L 84.784 221.604 L 85.14 221.753 L 85.33 221.785 L 85.153 221.711 L 84.772 221.646 L 85.128 221.795 L 76.764 220.374 L 77.071 220.607 L 76.691 220.542 L 76.537 220.425 L 76.727 220.458 L 77.035 220.691 L 76.654 220.626 L 83.417 225.75 L 83.064 225.593 L 83.372 225.826 L 83.548 225.904 L 83.394 225.788 L 83.042 225.631 L 83.349 225.864 L 75.602 222.406 L 75.841 222.709 L 75.489 222.551 L 75.369 222.4 L 75.545 222.479 L 75.785 222.781 L 75.433 222.624 L 80.708 229.268 L 80.406 229.029 L 80.646 229.331 L 80.797 229.451 L 80.677 229.3 L 80.375 229.06 L 80.615 229.362 Z " fill="rgb(208,210,211)"/></g></g></svg>