<?xml version="1.0" encoding="UTF-8" standalone="no"?>
<!-- Generator: Gravit.io -->
<svg xmlns="http://www.w3.org/2000/svg" xmlns:xlink="http://www.w3.org/1999/xlink" style="isolation:isolate" viewBox="0 0 256 256" width="256pt" height="256pt"><defs><clipPath id="_clipPath_sQVge71gUxuJts3IDAXfWjphUHpCkYMW"><rect width="256" height="256"/></clipPath></defs><g clip-path="url(#_clipPath_sQVge71gUxuJts3IDAXfWjphUHpCkYMW)"><g><g><circle vector-effect="non-scaling-stroke" cx="65.3888975040255" cy="118.72033078371393" r="59.888897504025465" fill="rgb(208,210,211)"/><rect x="59.944" y="129.609" width="81.667" height="49" transform="matrix(1,0,0,1,0,0)" fill="rgb(208,210,211)"/><circle vector-effect="non-scaling-stroke" cx="136.16668546332858" cy="145.9425569219065" r="32.666671365832" fill="rgb(208,210,211)"/></g><path d=" M 112.796 127.169 L 176.884 127.169 L 194.463 127.169 C 205.391 121.942 205.951 104.904 200.296 98.002 C 194.641 91.099 192.885 91.646 182.796 92.169 Q 172.707 92.691 171.13 109.669" fill="none" vector-effect="non-scaling-stroke" stroke-width="10" stroke="rgb(105,156,139)" stroke-linejoin="miter" stroke-linecap="square" stroke-miterlimit="3"/><path d=" M 130.296 161.887 L 194.384 161.887 L 211.963 161.887 C 222.891 167.114 223.451 184.151 217.796 191.054 C 212.141 197.956 210.385 197.41 200.296 196.887 Q 190.207 196.364 188.63 179.387" fill="none" vector-effect="non-scaling-stroke" stroke-width="10" stroke="rgb(105,156,139)" stroke-linejoin="miter" stroke-linecap="square" stroke-miterlimit="3"/><path d=" M 133.833 144.669 L 159.463 144.669 L 223.55 144.669 L 241.13 144.669 C 252.058 139.442 252.618 122.404 246.963 115.502 C 241.308 108.599 239.552 109.146 229.463 109.669 Q 219.374 110.191 217.796 127.169" fill="none" vector-effect="non-scaling-stroke" stroke-width="10" stroke="rgb(105,156,139)" stroke-linejoin="miter" stroke-linecap="square" stroke-miterlimit="3"/></g></g></svg>